<svg clip-rule="evenodd" fill-rule="evenodd" stroke-linejoin="round" stroke-miterlimit="2" viewBox="0 0 1859 913" xmlns="http://www.w3.org/2000/svg"><title>Your Union</title><desc>University of St Andrews Students' Association</desc><g fill-rule="nonzero" transform="scale(4.16667)"><path d="m31.435 213.331h138.236v5.669h-138.236z" fill="#00aeef"/><path d="m169.671 213.331h138.235v5.669h-138.235z" fill="#fdb812"/><path d="m307.906 213.331h138.236v5.669h-138.236z" fill="#d91b5b"/><g fill="#696a6c"><path d="m34.597 190.109v7.338c0 2.076.323 3.061 1.611 3.061 1.289 0 1.611-.985 1.611-3.061v-7.338h2.488v8.072c0 1.325-.054 2.345-.644 3.203-.806 1.183-1.898 1.702-3.455 1.702s-2.649-.519-3.454-1.702c-.644-.948-.644-1.967-.644-3.203v-8.072z"/><path d="m42.38 202.835v-12.726h2.362l5.262 8.126v-8.126h2.435v12.726h-2.309l-5.298-8.376v8.376z"/><path d="m54.528 190.109h2.488v12.726h-2.488z"/><path d="m62.24 202.835-4.564-12.726h2.667l2.774 8.483 2.792-8.483h2.649l-4.546 12.726z"/><path d="m69.217 202.835v-12.726h6.873v2.237h-4.403v2.9h4.403v2.201h-4.403v3.15h4.403v2.238z"/><path d="m81.17 196.301c2.022 0 3.078-.751 3.078-2.147 0-1.378-.895-1.969-2.702-1.969h-.931v4.116zm-3.043 6.534v-12.726h3.025c1.414 0 2.505.035 3.347.43 1.449.679 2.219 1.915 2.219 3.545 0 1.967-1.145 3.435-3.024 3.81l3.186 4.941h-2.972l-3.293-5.906v5.906z"/><path d="m89.775 198.88v.178c0 1.092.627 1.772 1.539 1.772 1.003 0 1.629-.645 1.629-1.663 0-1.362-.752-1.451-2.13-1.881-1.951-.609-2.917-1.718-2.917-3.472 0-2.397 1.449-3.956 3.633-3.956 2.059 0 3.347 1.343 3.49 3.669h-2.255v-.107c0-.824-.537-1.361-1.324-1.361-.806 0-1.325.537-1.325 1.433 0 .358.09.644.304.877.502.555 1.343.626 2.345.967 1.736.589 2.559 1.664 2.559 3.4 0 2.631-1.592 4.35-3.991 4.35-2.255 0-3.794-1.648-3.83-4.206z"/><path d="m96.824 190.109h2.488v12.726h-2.488z"/><path d="m107.741 192.346h-2.399v10.489h-2.487v-10.489h-2.399v-2.237h7.285z"/><path d="m113.429 202.835h-2.487v-4.582l-3.652-8.144h2.738l2.202 5.477 2.184-5.477h2.72l-3.705 8.144z"/><path d="m125.936 199.183c.787.86 1.825 1.325 2.862 1.325 2.167 0 3.939-1.718 3.939-4.153 0-2.165-1.754-3.92-3.884-3.92-2.237 0-3.992 1.755-3.992 3.92 0 1.092.358 2.041 1.075 2.828zm-2.578-6.461c1.253-1.826 3.222-2.864 5.477-2.864 1.7 0 3.311.681 4.547 1.898 1.27 1.27 1.95 2.899 1.95 4.635 0 1.825-.644 3.455-1.843 4.69-1.235 1.288-2.918 2.005-4.691 2.005-1.878 0-3.489-.663-4.742-2.005-1.181-1.253-1.808-2.846-1.808-4.635 0-1.415.376-2.65 1.11-3.724z"/><path d="m136.848 190.109h6.873v2.237h-4.403v2.9h4.403v2.201h-4.403v5.388h-2.47z"/><path d="m152.092 198.88v.178c0 1.092.627 1.772 1.54 1.772 1.002 0 1.628-.645 1.628-1.663 0-1.362-.752-1.451-2.129-1.881-1.952-.609-2.918-1.718-2.918-3.472 0-2.397 1.45-3.956 3.633-3.956 2.059 0 3.348 1.343 3.491 3.669h-2.256v-.107c0-.824-.536-1.361-1.324-1.361-.806 0-1.325.537-1.325 1.433 0 .358.09.644.304.877.502.555 1.343.626 2.345.967 1.737.589 2.56 1.664 2.56 3.4 0 2.631-1.593 4.35-3.991 4.35-2.256 0-3.795-1.648-3.831-4.206z"/><path d="m165.459 192.346h-2.398v10.489h-2.488v-10.489h-2.399v-2.237h7.285z"/><path d="m175.996 193.707-1.539 4.098h3.043zm-3.383 9.128h-2.577l4.94-12.726h2.148l4.868 12.726h-2.667l-1.002-2.667h-4.725z"/><path d="m182.489 202.835v-12.726h2.363l5.262 8.126v-8.126h2.434v12.726h-2.309l-5.297-8.376v8.376z"/><path d="m202.836 196.463c0-2.649-1.504-4.188-4.063-4.188h-1.629v8.376h1.665c2.738 0 4.027-1.288 4.027-4.188zm-8.198 6.372v-12.726h4.26c2.004 0 3.383.287 4.654 1.522 1.199 1.163 1.825 2.828 1.825 4.903 0 2.309-.877 4.171-2.523 5.352-1.11.806-2.309.949-3.884.949z"/><path d="m209.883 196.301c2.023 0 3.079-.751 3.079-2.147 0-1.378-.895-1.969-2.703-1.969h-.93v4.116zm-3.042 6.534v-12.726h3.025c1.413 0 2.506.035 3.347.43 1.45.679 2.219 1.915 2.219 3.545 0 1.967-1.145 3.435-3.025 3.81l3.186 4.941h-2.971l-3.293-5.906v5.906z"/><path d="m216.986 202.835v-12.726h6.873v2.237h-4.404v2.9h4.404v2.201h-4.404v3.15h4.404v2.238z"/><path d="m227.094 190.109 2.095 8.251 2.309-8.251h1.718l2.308 8.251 2.094-8.251h2.542l-3.687 12.726h-1.987l-2.129-7.948-2.148 7.948h-1.969l-3.687-12.726z"/><path d="m242.426 198.88v.178c0 1.092.627 1.772 1.541 1.772 1.002 0 1.627-.645 1.627-1.663 0-1.362-.75-1.451-2.129-1.881-1.951-.609-2.917-1.718-2.917-3.472 0-2.397 1.451-3.956 3.634-3.956 2.057 0 3.346 1.343 3.491 3.669h-2.256v-.107c0-.824-.537-1.361-1.325-1.361-.806 0-1.324.537-1.324 1.433 0 .358.088.644.303.877.502.555 1.344.626 2.346.967 1.736.589 2.558 1.664 2.558 3.4 0 2.631-1.592 4.35-3.99 4.35-2.256 0-3.795-1.648-3.83-4.206z"/><path d="m256.133 198.88v.178c0 1.092.625 1.772 1.54 1.772 1.001 0 1.628-.645 1.628-1.663 0-1.362-.752-1.451-2.131-1.881-1.951-.609-2.917-1.718-2.917-3.472 0-2.397 1.451-3.956 3.634-3.956 2.059 0 3.346 1.343 3.49 3.669h-2.255v-.107c0-.824-.538-1.361-1.324-1.361-.805 0-1.326.537-1.326 1.433 0 .358.09.644.306.877.5.555 1.342.626 2.344.967 1.736.589 2.56 1.664 2.56 3.4 0 2.631-1.594 4.35-3.992 4.35-2.256 0-3.795-1.648-3.83-4.206z"/><path d="m269.501 192.346h-2.399v10.489h-2.488v-10.489h-2.399v-2.237h7.286z"/><path d="m273.112 190.109v7.338c0 2.076.322 3.061 1.611 3.061s1.612-.985 1.612-3.061v-7.338h2.488v8.072c0 1.325-.055 2.345-.645 3.203-.806 1.183-1.898 1.702-3.455 1.702-1.556 0-2.648-.519-3.455-1.702-.644-.948-.644-1.967-.644-3.203v-8.072z"/><path d="m289.092 196.463c0-2.649-1.503-4.188-4.064-4.188h-1.629v8.376h1.666c2.738 0 4.027-1.288 4.027-4.188zm-8.199 6.372v-12.726h4.26c2.006 0 3.383.287 4.654 1.522 1.2 1.163 1.826 2.828 1.826 4.903 0 2.309-.876 4.171-2.523 5.352-1.109.806-2.309.949-3.885.949z"/><path d="m293.096 202.835v-12.726h6.873v2.237h-4.402v2.9h4.402v2.201h-4.402v3.15h4.402v2.238z"/><path d="m302.007 202.835v-12.726h2.363l5.262 8.126v-8.126h2.433v12.726h-2.308l-5.299-8.376v8.376z"/><path d="m320.473 192.346h-2.398v10.489h-2.488v-10.489h-2.399v-2.237h7.285z"/><path d="m323.102 198.88v.178c0 1.092.625 1.772 1.539 1.772 1.002 0 1.629-.645 1.629-1.663 0-1.362-.752-1.451-2.131-1.881-1.951-.609-2.918-1.718-2.918-3.472 0-2.397 1.452-3.956 3.635-3.956 2.059 0 3.346 1.343 3.49 3.669h-2.256v-.107c0-.824-.537-1.361-1.324-1.361-.804 0-1.324.537-1.324 1.433 0 .358.09.644.305.877.5.555 1.342.626 2.343.967 1.737.589 2.561 1.664 2.561 3.4 0 2.631-1.594 4.35-3.992 4.35-2.256 0-3.795-1.648-3.83-4.206z"/><path d="m332.405 192.4c0 1.629-.662 2.38-2.236 2.417v-1.29c.554-.071.752-.304.752-.858v-.144h-.752v-2.416h2.236z"/><path d="m343.768 193.707-1.539 4.098h3.043zm-3.383 9.128h-2.578l4.94-12.726h2.148l4.869 12.726h-2.668l-1.002-2.667h-4.724z"/><path d="m352.229 198.88v.178c0 1.092.627 1.772 1.539 1.772 1.004 0 1.629-.645 1.629-1.663 0-1.362-.752-1.451-2.129-1.881-1.951-.609-2.918-1.718-2.918-3.472 0-2.397 1.449-3.956 3.633-3.956 2.059 0 3.348 1.343 3.49 3.669h-2.254v-.107c0-.824-.537-1.361-1.326-1.361-.804 0-1.324.537-1.324 1.433 0 .358.09.644.305.877.502.555 1.341.626 2.345.967 1.737.589 2.559 1.664 2.559 3.4 0 2.631-1.594 4.35-3.992 4.35-2.254 0-3.793-1.648-3.83-4.206z"/><path d="m360.764 198.88v.178c0 1.092.625 1.772 1.539 1.772 1.002 0 1.629-.645 1.629-1.663 0-1.362-.752-1.451-2.131-1.881-1.951-.609-2.918-1.718-2.918-3.472 0-2.397 1.452-3.956 3.635-3.956 2.059 0 3.346 1.343 3.49 3.669h-2.255v-.107c0-.824-.538-1.361-1.325-1.361-.804 0-1.324.537-1.324 1.433 0 .358.09.644.305.877.5.555 1.342.626 2.344.967 1.736.589 2.56 1.664 2.56 3.4 0 2.631-1.594 4.35-3.992 4.35-2.256 0-3.795-1.648-3.83-4.206z"/><path d="m370.926 199.183c.788.86 1.827 1.325 2.864 1.325 2.166 0 3.937-1.718 3.937-4.153 0-2.165-1.754-3.92-3.883-3.92-2.238 0-3.992 1.755-3.992 3.92 0 1.092.36 2.041 1.074 2.828zm-2.576-6.461c1.252-1.826 3.221-2.864 5.477-2.864 1.699 0 3.31.681 4.545 1.898 1.271 1.27 1.951 2.899 1.951 4.635 0 1.825-.645 3.455-1.844 4.69-1.234 1.288-2.916 2.005-4.689 2.005-1.879 0-3.491-.663-4.742-2.005-1.182-1.253-1.809-2.846-1.809-4.635 0-1.415.377-2.65 1.111-3.724z"/><path d="m390.753 193.885c-.698-.948-1.682-1.467-2.989-1.467-1.021 0-1.968.393-2.685 1.128-.77.788-1.182 1.843-1.182 2.881 0 2.38 1.754 4.117 3.867 4.117 1.252 0 2.274-.484 2.899-1.361h3.043c-1.182 2.596-3.168 3.903-5.924 3.903-1.897 0-3.525-.735-4.815-2.184-1.074-1.199-1.646-2.756-1.646-4.511 0-1.772.68-3.383 1.986-4.689 1.217-1.199 2.739-1.844 4.492-1.844 2.793 0 4.745 1.324 5.997 4.027z"/><path d="m395.276 190.109h2.488v12.726h-2.488z"/><path d="m404.098 193.707-1.539 4.098h3.043zm-3.383 9.128h-2.576l4.94-12.726h2.148l4.867 12.726h-2.666l-1.002-2.667h-4.726z"/><path d="m416.176 192.346h-2.398v10.489h-2.488v-10.489h-2.399v-2.237h7.285z"/><path d="m417.319 190.109h2.488v12.726h-2.488z"/><path d="m425.032 199.183c.787.86 1.824 1.325 2.863 1.325 2.166 0 3.938-1.718 3.938-4.153 0-2.165-1.754-3.92-3.885-3.92-2.236 0-3.99 1.755-3.99 3.92 0 1.092.357 2.041 1.074 2.828zm-2.578-6.461c1.252-1.826 3.222-2.864 5.476-2.864 1.702 0 3.313.681 4.547 1.898 1.272 1.27 1.951 2.899 1.951 4.635 0 1.825-.644 3.455-1.843 4.69-1.235 1.288-2.918 2.005-4.69 2.005-1.879 0-3.49-.663-4.744-2.005-1.18-1.253-1.807-2.846-1.807-4.635 0-1.415.375-2.65 1.11-3.724z"/><path d="m435.944 202.835v-12.726h2.363l5.262 8.126v-8.126h2.434v12.726h-2.309l-5.299-8.376v8.376z"/><path d="m359.465 177.034h24.777v-49.813l38.871 49.813h22.1v-90.806h-24.778v47.995l-37.439-47.995h-23.531zm-36.696-1.881c5.969-2.465 11.158-5.838 15.567-10.119 4.412-4.281 7.849-9.295 10.314-15.046 2.465-5.753 3.697-11.871 3.697-18.358v-.26c0-6.486-1.232-12.582-3.697-18.291-2.465-5.707-5.859-10.679-10.184-14.917-4.324-4.236-9.47-7.588-15.437-10.053s-12.453-3.697-19.459-3.697c-7.004 0-13.49 1.232-19.457 3.697-5.969 2.465-11.158 5.838-15.568 10.119-4.411 4.28-7.849 9.297-10.313 15.047-2.465 5.751-3.697 11.871-3.697 18.355v.259c0 6.487 1.232 12.584 3.697 18.291 2.464 5.708 5.858 10.683 10.184 14.918 4.324 4.24 9.47 7.59 15.437 10.055s12.453 3.695 19.459 3.695c7.004 0 13.49-1.23 19.457-3.695zm-28.76-21.015c-2.861-1.34-5.312-3.135-7.349-5.383-2.039-2.248-3.623-4.844-4.75-7.784-1.127-2.939-1.69-6.052-1.69-9.341v-.26c0-3.285.541-6.399 1.627-9.34 1.082-2.939 2.643-5.512 4.682-7.717 2.039-2.207 4.467-3.957 7.287-5.254 2.816-1.298 5.961-1.947 9.43-1.947s6.635.672 9.496 2.013c2.863 1.341 5.334 3.133 7.416 5.382 2.078 2.25 3.685 4.845 4.812 7.783 1.127 2.941 1.692 6.057 1.692 9.34v.259c0 3.288-.565 6.401-1.692 9.342-1.127 2.94-2.689 5.512-4.683 7.717s-4.422 3.957-7.285 5.254c-2.862 1.297-6.028 1.948-9.496 1.948-3.471 0-6.635-.671-9.497-2.012zm-73.772 22.896h25.296v-90.806h-25.296zm-94.123 0h24.777v-49.813l38.871 49.813h22.099v-90.806h-24.777v47.995l-37.44-47.995h-23.53zm-35.402-.779c5.232-1.641 9.685-4.17 13.362-7.588 3.674-3.416 6.528-7.783 8.561-13.102 2.031-5.32 3.049-11.654 3.049-19.006v-50.331h-25.685v51.111c0 6.4-1.503 11.113-4.507 14.14-3.004 3.028-7.035 4.539-12.098 4.539-5.064 0-9.098-1.576-12.101-4.734-3.005-3.156-4.505-8.021-4.505-14.594v-50.462h-25.684v50.981c0 7.091.972 13.254 2.919 18.485 1.944 5.233 4.735 9.557 8.366 12.973 3.633 3.418 8.043 5.947 13.232 7.588 5.19 1.642 11.027 2.466 17.512 2.466 6.487 0 12.345-.824 17.579-2.466z"/><path d="m445.412 5.804h-16.022l-.506.509v2.541l.506.506h.295v49.728h-19.283l-.506.505v16.726h-7.51l-.154-27.478-.051-.273c-.134-.409-1.422-4.061-4.652-6.471-2.418-1.806-5.016-4.347-5.951-5.282l-.209-8.045-.055-.275c-.221-.611-.476-1.447-.512-1.732-.054-.445-.57-7.773-.763-10.53l-.008-.091c0-.486-.004-2.957-.074-3.818-.022-.252-.061-.518-.117-.79l.367-.378.138-.42-.845-6.279-.657-.412-1.222.393-.377-.873-.487-.307-.531.023-.281-.709c.098-.214.148-.452.148-.691 0-.916-.73-1.665-1.627-1.665-.898 0-1.63.749-1.63 1.665 0 .293.074.578.214.826l-1.095 1.668-1.381-.271-.6.437-.756 6.515.225.482.236.155v3.427l.051.219s-.334 2.993-.33 3.072c-.008.038-.043.184-.244.738-.205.565-.33 1.762.73 4.248.276.791.575 1.909.575 2.336 0 .419-.311 2.493-.311 2.493l-.541.558-.143.352v6.284l-4.71.934-.405.429-.142 1.119c-1.026.973-3.682 3.956-3.682 8.68 0 3.334-.088 5.824-.154 7.224h-5.143l-.494.396-.111.5c-.256 1.154-1.084 5.038-1.084 6.62v15.005l-7.6.048-.029-43.969c.043-3.932.078-10.654-.156-11.498-.209-.759-.799-1.49-1.213-1.932v-.304h.523l.481-.665-3.139-9.578-.481-.347h-1.789l-.49.377-2.488 9.461.488.634h.361v.3l-.468.677-.09.257-.211 3.509c-.358.405-.828 1.134-.828 2.15 0 .635-.045 2.039-.074 2.889h-12.461c-.118-1.064-.323-2.834-.487-3.598-.183-.856-.592-1.572-.873-1.993l.108-2.781-.106-.33-.359-.461v-.028h.303l.478-.666-3.26-9.816-.48-.344h-1.549l-.484.366-2.862 10.05.489.644h.275c-.268.2-.555.459-.768.753-.238.325-.564.772-.386 12.499v29.384c-.272-.174-.717-.504-1.334-.993-.901-.714-1.274-1.011-1.795-1.011h-11.703l.013-2.939-.086-.296-.111-.166c-.047-.069-1.141-1.661-3.416-1.661-2.107 0-3.279 1.142-3.404 1.271l-.174.181-.145.351v11.507h-14.695l-.103.045-.012-.021-5.19 2.224-4.453 4.209s-.83.846-1.099.971c-.162.074-.282-.019-.282-.019l-22.109-28.755c3.346-.277 6.425-.939 9.248-1.984 2.822-1.045 5.26-2.437 7.315-4.182 2.054-1.738 3.64-3.829 4.755-6.266 1.114-2.44 1.672-5.19 1.672-8.257v-.209c0-2.717-.47-5.224-1.412-7.523-.939-2.299-2.246-4.319-3.918-6.061-2.23-2.231-5.103-3.952-8.621-5.173-3.517-1.22-7.611-1.829-12.277-1.829h-30.2v73.148h3.553v-31.245h25.914l23.826 31.245h3.536l2.306-2.159 3.782-3.573 4.738-2.032-.029-.071 14.964-.19.338-.198.463-.423.166-.373.018-11.991c.312-.185.822-.39 1.529-.39.686 0 1.141.265 1.404.486l.006 4.057.506.523h13.135c.18.127.48.367.697.538 1.113.88 1.895 1.466 2.598 1.573.113.014.222.023.326.023.998 0 1.684-.711 1.898-1.371l.024-.155.029-30.238c-.08-5.399-.047-10.197.076-11.284.168-.156.426-.336.614-.441l.308-.172.258-.44v-2.622l-.361-.363 1.49-5.243 1.707 5.14-.231.23v2.358l.106.308.334.433-.106 2.769.118.343.142.175c.022.028.526.66.688 1.41.177.831.465 3.485.55 4.353l.055.544.504.456h15.602l.504-.488.023-.584c.01-.214.115-3.009.115-4.048 0-.445.328-.731.346-.747l.228-.167.205-.377.227-3.743.502-.721.09-.29v-2.573l-.385-.384 1.281-4.87 1.657 4.97-.405.404v2.765l.164.374.2.184c.375.343.849.932.925 1.211.118.526.133 6.071.082 10.909l.071 45.649.507.507h10.674l.469-.326.215-.559.035-.178.041-16.163c0-1.111.572-3.964.85-5.286h5.379l.505-.471.04-.577c.021-.343.212-3.502.212-8.406 0-4.508 3.082-7.144 3.209-7.253l.188-.152.182-.326.07-.547 4.885-.966.408-.497v-6.996l.691-.713.131-.453s.17-2.237.17-2.946c0-1.04-.598-2.784-.729-3.154-.355-.837-.765-2.512-.71-2.663.24-.664.377-1.056.371-1.351.021-.122.22-.668.47-1.218l-.181-2.631v-3.964l-.231-.425-.123-.082.42-3.607.445.084.641.057.428-.175.26-.305.068-.104.769-1.562 1.274 2.514.662.23 1.123-.517.449 3.335-.467.48-.123.498.104.351c.107.358.176.698.199.983.039.481.065 1.758.069 3.599l.001.12c.006.099.711 10.178.786 10.812.07.573.4 1.572.564 2.046l.213 8.479.146.341.165.166c.033.036 3.314 3.432 6.517 5.825 2.432 1.816 3.592 4.636 3.815 5.227l.158 28.923.506.503h10.873l.506-.505v-16.725h19.281l.508-.505v-52.777h11l.07 70.531h2.195l-.074-69.207h.342l.506-.506v-2.541zm-195.774 38.289h-25.705v-35.425h26.436c7.245 0 12.871 1.552 16.879 4.65 4.004 3.102 6.008 7.404 6.008 12.906v.209c0 2.578-.524 4.948-1.569 7.105-1.045 2.161-2.578 4.025-4.597 5.593-2.022 1.566-4.495 2.785-7.418 3.655-2.929.872-6.272 1.307-10.034 1.307z"/><path d="m377.734 42.041-.176-.059h-.162l-.176.059c-1.148.395-2.576 3.139-2.738 4.217-.146.974-.146 8.34-.133 9.205l.012.574h6.232l.01-.574c.018-.865.016-8.231-.131-9.205-.162-1.078-1.59-3.822-2.738-4.217zm1.797 12.873h-4.108c-.052-3.353.131-7.848.225-8.471.125-.83 1.199-2.681 1.783-3.148h.092c.584.467 1.658 2.318 1.781 3.148.096.623.282 5.118.227 8.471z"/><path d="m390.201 44.304-.756-.23.002 8.496h7.211l-.074-.75c0-.057-.227-5.661-6.383-7.516zm.414 6.994.01-5.565c3.638 1.421 4.509 4.337 4.716 5.565z"/><path d="m379.435 75.359c-1.326-7.932-3.097-11.994-6.012-11.994-3.3 0-5.416 3.955-6.115 11.437-.152 1.631-.256 2.182-.271 3.125l-.012.621h12.846l-.076-.681c-.133-1.178-.17-1.387-.36-2.508zm-11.101 1.971c.025-.891.031-1.141.15-2.41.361-3.862 1.481-10.338 4.939-10.338 2.159 0 3.692 4.029 4.852 10.984.147.885.107.879.221 1.803z"/><path d="m344.379 51.244v-12.074c.002-.127.052-3.104-1.678-4.93-.858-.906-1.99-1.367-3.365-1.367-1.379 0-2.495.463-3.319 1.375-1.656 1.834-1.47 4.824-1.463 4.906v12.09zm-7.495-16.17c.598-.662 1.401-.98 2.452-.98 1.045 0 1.89.334 2.517.994 1.381 1.453 1.346 4.027 1.346 4.066v10.873h-7.465v-10.914c-.002-.027-.156-2.596 1.15-4.039z"/><path d="m61.444 5.43-28.423 40.021-28.634-40.021h-4.387l31.14 43.156v29.992h3.553v-29.992l31.035-43.156z"/><path d="m204.602 47.019c0 4.947-.61 9.248-1.828 12.904-1.22 3.659-2.962 6.725-5.225 9.198-2.265 2.474-5 4.32-8.203 5.537-3.205 1.22-6.793 1.83-10.763 1.83-3.971 0-7.576-.627-10.816-1.881-3.239-1.254-6.008-3.135-8.307-5.643-2.299-2.509-4.076-5.607-5.329-9.302-1.254-3.69-1.881-7.975-1.881-12.852v-41.381h-3.553v41.59c0 5.434.731 10.188 2.194 14.264s3.501 7.47 6.113 10.189c2.613 2.717 5.747 4.772 9.405 6.166 3.657 1.391 7.68 2.088 12.069 2.088s8.412-.697 12.069-2.088c3.658-1.394 6.793-3.465 9.405-6.219 2.613-2.752 4.632-6.199 6.061-10.345 1.427-4.145 2.142-8.936 2.142-14.369v-41.276h-3.553z"/><path d="m135.061 27.582c-1.707-4.527-4.164-8.531-7.367-12.016-3.205-3.484-7.053-6.252-11.546-8.308-4.494-2.055-9.493-3.082-14.996-3.082-5.574 0-10.606 1.027-15.099 3.082-4.494 2.056-8.326 4.824-11.495 8.308-3.171 3.485-5.626 7.489-7.367 12.016-1.742 4.529-2.612 9.301-2.612 14.316v.209c0 5.016.852 9.789 2.56 14.317 1.706 4.529 4.161 8.535 7.367 12.017 3.203 3.485 7.035 6.254 11.494 8.307 4.458 2.055 9.474 3.084 15.048 3.084 5.502 0 10.518-1.029 15.047-3.084 4.528-2.053 8.376-4.822 11.547-8.307 3.169-3.482 5.625-7.488 7.367-12.017 1.741-4.528 2.613-9.301 2.613-14.317.138-.138.138-.209 0-.209 0-5.015-.854-9.787-2.561-14.316zm-.992 14.629c0 4.6-.805 8.988-2.412 13.168s-3.843 7.838-6.709 10.973c-2.865 3.134-6.307 5.626-10.325 7.47-4.019 1.848-8.474 2.772-13.366 2.772s-9.366-.942-13.418-2.823c-4.054-1.88-7.548-4.406-10.484-7.576s-5.207-6.845-6.813-11.025c-1.607-4.18-2.41-8.568-2.41-13.168v-.209c0-4.596.803-8.984 2.41-13.166 1.606-4.18 3.842-7.836 6.709-10.971 2.865-3.135 6.325-5.625 10.379-7.472 4.052-1.844 8.525-2.77 13.418-2.77 4.892 0 9.364.941 13.418 2.822 4.052 1.881 7.53 4.407 10.43 7.576 2.9 3.17 5.154 6.844 6.761 11.024 1.607 4.182 2.412 8.57 2.412 13.166z"/><path d="m435.734 21.584 3.715.002v-5.195l-3.715-.002z"/><path d="m436.597 31.623h1.889v4h-1.889z"/><path d="m437.615 71.091c-.455 0-.74.206-.9.375-.397.427-.375 1.025-.37 1.099v5.983h2.577v-5.968c.003-.116-.002-.707-.409-1.123-.232-.239-.543-.366-.898-.366z"/></g></g></svg>